<svg width="175.7519989013672"
   height="36" viewBox="0 0 793 177" fill="none" xmlns="http://www.w3.org/2000/svg">
<path d="M53.207 88.5312H95.5898C102.035 88.5312 107.471 86.4479 111.898 82.2812C116.391 78.1146 118.637 72.1901 118.637 64.5078C118.637 58.8438 116.293 53.7656 111.605 49.2734C106.918 44.7161 101.579 42.4375 95.5898 42.4375H35.2383V169H28.207V35.4062H95.5898C103.533 35.4062 110.531 38.3685 116.586 44.293C122.641 50.1523 125.668 56.8906 125.668 64.5078C125.668 73.8828 122.738 81.4023 116.879 87.0664C111.02 92.7305 103.923 95.5625 95.5898 95.5625H53.207V88.5312ZM53.207 102.594H95.5898C105.746 102.594 114.47 99.0456 121.762 91.9492C129.053 84.7878 132.699 75.6406 132.699 64.5078C132.699 54.9375 128.956 46.5391 121.469 39.3125C114.047 32.0208 105.421 28.375 95.5898 28.375H21.1758V169H14.1445V21.3438H95.5898C103.337 21.3438 110.596 23.3294 117.367 27.3008C124.203 31.2721 129.639 36.6107 133.676 43.3164C137.712 49.957 139.73 57.0208 139.73 64.5078C139.73 77.3333 135.368 88.0755 126.645 96.7344C117.986 105.328 107.634 109.625 95.5898 109.625H53.207V102.594ZM53.207 116.656H95.5898C104.704 116.656 113.168 114.41 120.98 109.918C128.793 105.426 135.043 99.1758 139.73 91.168C144.418 83.0951 146.762 74.2083 146.762 64.5078C146.762 55.7188 144.418 47.4831 139.73 39.8008C135.108 32.0534 128.858 25.8685 120.98 21.2461C113.103 16.6237 104.639 14.3125 95.5898 14.3125H7.11328V169H0.0820312V7.28125H95.5898C105.811 7.28125 115.414 9.91797 124.398 15.1914C133.383 20.3997 140.512 27.431 145.785 36.2852C151.124 45.0742 153.793 54.4818 153.793 64.5078C153.793 76.0964 151.286 86.2852 146.273 95.0742C141.326 103.863 134.587 110.732 126.059 115.68L144.223 169H136.801L119.418 119C116.814 120.042 114.828 120.758 113.461 121.148L129.77 169H122.348L106.43 122.809C105.844 122.939 103.76 123.167 100.18 123.492L115.316 169H107.895L92.9531 123.688H86.6055L100.863 169H93.4414L79.0859 123.688H53.207V116.656ZM49.3008 169H42.2695V49.4688H95.5898C99.9518 49.4688 103.695 50.9661 106.82 53.9609C110.01 56.8906 111.605 60.4062 111.605 64.5078C111.605 75.8359 106.267 81.5 95.5898 81.5H53.207V74.4688H95.5898C98.3893 74.4688 100.57 73.7526 102.133 72.3203C103.76 70.8229 104.574 68.2188 104.574 64.5078C104.574 62.2292 103.695 60.3411 101.938 58.8438C100.245 57.2812 98.1289 56.5 95.5898 56.5H49.3008V169ZM247.445 60.7969C239.893 68.349 236.117 77.4635 236.117 88.1406C236.117 98.8177 239.893 107.932 247.445 115.484C254.997 123.036 264.112 126.812 274.789 126.812C285.466 126.812 294.581 123.036 302.133 115.484C309.685 107.932 313.461 98.8177 313.461 88.1406C313.461 77.4635 309.685 68.349 302.133 60.7969C294.581 53.2448 285.466 49.4688 274.789 49.4688C264.112 49.4688 254.997 53.2448 247.445 60.7969ZM232.699 105.914C230.29 100.25 229.086 94.3255 229.086 88.1406C229.086 81.9557 230.29 76.0638 232.699 70.4648C235.108 64.8008 238.363 59.918 242.465 55.8164C246.566 51.7148 251.417 48.4596 257.016 46.0508C262.68 43.6419 268.604 42.4375 274.789 42.4375C280.974 42.4375 286.866 43.6419 292.465 46.0508C298.129 48.4596 303.012 51.7148 307.113 55.8164C311.215 59.918 314.47 64.8008 316.879 70.4648C319.288 76.0638 320.492 81.9557 320.492 88.1406C320.492 94.3255 319.288 100.25 316.879 105.914C314.47 111.513 311.215 116.363 307.113 120.465C303.012 124.566 298.129 127.822 292.465 130.23C286.866 132.639 280.974 133.844 274.789 133.844C268.604 133.844 262.68 132.639 257.016 130.23C251.417 127.822 246.566 124.566 242.465 120.465C238.363 116.363 235.108 111.513 232.699 105.914ZM229.086 61.6758C224.398 69.7487 222.055 78.5703 222.055 88.1406C222.055 97.7109 224.398 106.533 229.086 114.605C233.839 122.678 240.251 129.091 248.324 133.844C256.397 138.531 265.219 140.875 274.789 140.875C284.359 140.875 293.181 138.531 301.254 133.844C309.327 129.091 315.707 122.678 320.395 114.605C325.147 106.533 327.523 97.7109 327.523 88.1406C327.523 78.5703 325.147 69.7487 320.395 61.6758C315.707 53.6029 309.327 47.2227 301.254 42.5352C293.181 37.7826 284.359 35.4062 274.789 35.4062C265.219 35.4062 256.397 37.7826 248.324 42.5352C240.251 47.2227 233.839 53.6029 229.086 61.6758ZM223.031 118.121C217.693 108.941 215.023 98.9479 215.023 88.1406C215.023 77.3333 217.693 67.3398 223.031 58.1602C228.37 48.9805 235.629 41.7214 244.809 36.3828C253.988 31.0443 263.982 28.375 274.789 28.375C285.596 28.375 295.59 31.0443 304.77 36.3828C313.949 41.7214 321.208 48.9805 326.547 58.1602C331.885 67.3398 334.555 77.3333 334.555 88.1406C334.555 98.9479 331.885 108.941 326.547 118.121C321.208 127.301 313.949 134.56 304.77 139.898C295.59 145.237 285.596 147.906 274.789 147.906C263.982 147.906 253.988 145.237 244.809 139.898C235.629 134.56 228.37 127.301 223.031 118.121ZM213.266 62.1641C209.75 70.4323 207.992 79.0911 207.992 88.1406C207.992 97.1901 209.75 105.849 213.266 114.117C216.781 122.385 221.501 129.514 227.426 135.504C233.415 141.428 240.544 146.148 248.812 149.664C257.081 153.18 265.74 154.938 274.789 154.938C283.839 154.938 292.497 153.18 300.766 149.664C309.034 146.148 316.13 141.428 322.055 135.504C328.044 129.514 332.797 122.385 336.312 114.117C339.828 105.849 341.586 97.1901 341.586 88.1406C341.586 79.0911 339.828 70.4323 336.312 62.1641C332.797 53.8958 328.044 46.7995 322.055 40.875C316.13 34.8854 309.034 30.1328 300.766 26.6172C292.497 23.1016 283.839 21.3438 274.789 21.3438C265.74 21.3438 257.081 23.1016 248.812 26.6172C240.544 30.1328 233.415 34.8854 227.426 40.875C221.501 46.7995 216.781 53.8958 213.266 62.1641ZM210.824 125.152C204.249 113.824 200.961 101.487 200.961 88.1406C200.961 74.7943 204.249 62.457 210.824 51.1289C217.465 39.8008 226.449 30.849 237.777 24.2734C249.105 17.6328 261.443 14.3125 274.789 14.3125C288.135 14.3125 300.473 17.6328 311.801 24.2734C323.129 30.849 332.081 39.8008 338.656 51.1289C345.297 62.457 348.617 74.7943 348.617 88.1406C348.617 101.487 345.297 113.824 338.656 125.152C332.081 136.48 323.129 145.465 311.801 152.105C300.473 158.681 288.135 161.969 274.789 161.969C261.443 161.969 249.105 158.681 237.777 152.105C226.449 145.465 217.465 136.48 210.824 125.152ZM200.277 56.793C196.046 66.7539 193.93 77.2031 193.93 88.1406C193.93 99.0781 196.046 109.56 200.277 119.586C204.574 129.547 210.336 138.141 217.562 145.367C224.789 152.594 233.383 158.355 243.344 162.652C253.37 166.884 263.852 169 274.789 169C285.727 169 296.176 166.884 306.137 162.652C316.163 158.355 324.789 152.594 332.016 145.367C339.242 138.141 344.971 129.547 349.203 119.586C353.5 109.56 355.648 99.0781 355.648 88.1406C355.648 77.2031 353.5 66.7539 349.203 56.793C344.971 46.7669 339.242 38.1406 332.016 30.9141C324.789 23.6875 316.163 17.9583 306.137 13.7266C296.176 9.42969 285.727 7.28125 274.789 7.28125C263.852 7.28125 253.37 9.42969 243.344 13.7266C233.383 17.9583 224.789 23.6875 217.562 30.9141C210.336 38.1406 204.574 46.7669 200.277 56.793ZM193.832 122.32C189.21 111.448 186.898 100.055 186.898 88.1406C186.898 76.2266 189.21 64.8659 193.832 54.0586C198.52 43.1862 204.77 33.8438 212.582 26.0312C220.46 18.1536 229.802 11.9036 240.609 7.28125C251.482 2.59375 262.875 0.25 274.789 0.25C286.703 0.25 298.064 2.59375 308.871 7.28125C319.743 11.9036 329.086 18.1536 336.898 26.0312C344.776 33.8438 351.026 43.1862 355.648 54.0586C360.336 64.8659 362.68 76.2266 362.68 88.1406C362.68 100.055 360.336 111.448 355.648 122.32C351.026 133.128 344.776 142.47 336.898 150.348C329.086 158.16 319.743 164.378 308.871 169C298.064 173.688 286.703 176.031 274.789 176.031C262.875 176.031 251.482 173.688 240.609 169C229.802 164.378 220.46 158.16 212.582 150.348C204.77 142.47 198.52 133.128 193.832 122.32ZM553.598 7.28125H560.629V169H553.598V7.28125ZM398.91 7.28125H405.941V169H398.91V7.28125ZM539.535 7.28125H546.566V169H539.535V7.28125ZM525.473 7.28125H532.504V169H525.473V7.28125ZM511.41 7.28125H518.441V169H511.41V105.621H448.129V169H441.098V7.28125H448.129V70.4648H511.41V7.28125ZM427.035 7.28125H434.066V169H427.035V7.28125ZM412.973 7.28125H420.004V169H412.973V7.28125ZM511.41 98.5898V91.5586H448.129V98.5898H511.41ZM511.41 84.5273V77.4961H448.129V84.5273H511.41ZM643.051 7.28125H650.082V169H643.051V7.28125ZM628.988 7.28125H636.02V169H628.988V7.28125ZM614.926 7.28125H621.957V169H614.926V7.28125ZM600.863 7.28125H607.895V169H600.863V7.28125ZM687.191 14.3125V7.28125H792.66V14.3125H687.191ZM687.191 28.375V21.3438H792.66V28.375H687.191ZM687.191 42.4375V35.4062H792.66V42.4375H764.535V169H757.504V42.4375H750.473V169H743.441V42.4375H736.41V169H729.379V42.4375H722.348V169H715.316V42.4375H687.191Z" fill="#313BAC"/>
</svg>
